<svg xmlns="http://www.w3.org/2000/svg" xmlns:xlink="http://www.w3.org/1999/xlink" contentStyleType="text/css" data-diagram-type="DESCRIPTION" height="321px" preserveAspectRatio="none" style="width:474px;height:321px;background:#FFFFFF;" version="1.1" viewBox="0 0 474 321" width="474px" zoomAndPan="magnify"><defs/><g><!--cluster MoodTracker iOS App--><g class="cluster" data-entity="MoodTracker iOS App" data-source-line="8" data-uid="ent0004" id="cluster_MoodTracker iOS App"><rect fill="none" height="233" rx="2.5" ry="2.5" style="stroke:#181818;stroke-width:1;" width="176.3" x="147.57" y="7"/><text fill="#000000" font-family="sans-serif" font-size="14" font-weight="bold" lengthAdjust="spacing" textLength="157.165" x="157.1375" y="22.5352">MoodTracker iOS App</text></g><!--entity UC1--><g class="entity" data-entity="UC1" data-source-line="9" data-uid="ent0005" id="entity_UC1"><ellipse cx="235.7233" cy="208.999" fill="#F1F1F1" rx="50.5833" ry="14.659" style="stroke:#181818;stroke-width:0.5;"/><text fill="#000000" font-family="sans-serif" font-size="14" lengthAdjust="spacing" textLength="67.293" x="202.0768" y="213.7431">Log Mood</text></g><!--entity UC2--><g class="entity" data-entity="UC2" data-source-line="10" data-uid="ent0006" id="entity_UC2"><ellipse cx="235.7151" cy="57.999" fill="#F1F1F1" rx="66.7451" ry="15.749" style="stroke:#181818;stroke-width:0.5;"/><text fill="#000000" font-family="sans-serif" font-size="14" lengthAdjust="spacing" textLength="97.248" x="187.0911" y="62.7432">View Analytics</text></g><!--entity UC3--><g class="entity" data-entity="UC3" data-source-line="11" data-uid="ent0007" id="entity_UC3"><ellipse cx="235.7177" cy="125.9995" fill="#F1F1F1" rx="72.1477" ry="16.8295" style="stroke:#181818;stroke-width:0.5;"/><text fill="#000000" font-family="sans-serif" font-size="14" lengthAdjust="spacing" textLength="111.0361" x="180.1996" y="130.7437">Export to Health</text></g><!--entity User--><g class="entity" data-entity="User" data-source-line="5" data-uid="ent0002" id="entity_User"><ellipse cx="37.1807" cy="187.5083" fill="#F1F1F1" rx="8" ry="8" style="stroke:#181818;stroke-width:0.5;"/><path d="M37.1807,195.5083 L37.1807,222.5083 M24.1807,203.5083 L50.1807,203.5083 M37.1807,222.5083 L24.1807,237.5083 M37.1807,222.5083 L50.1807,237.5083" fill="none" style="stroke:#181818;stroke-width:0.5;"/><text fill="#000000" font-family="sans-serif" font-size="14" lengthAdjust="spacing" textLength="30.3652" x="21.998" y="252.5434">User</text><text fill="#000000" font-family="sans-serif" font-size="14" font-style="italic" lengthAdjust="spacing" textLength="60.3613" x="7" y="176.0552">&#171;Person&#187;</text></g><!--entity HealthKit--><g class="entity" data-entity="HealthKit" data-source-line="6" data-uid="ent0003" id="entity_HealthKit"><ellipse cx="435.4638" cy="104.5083" fill="#F1F1F1" rx="8" ry="8" style="stroke:#181818;stroke-width:0.5;"/><path d="M435.4638,112.5083 L435.4638,139.5083 M422.4638,120.5083 L448.4638,120.5083 M435.4638,139.5083 L422.4638,154.5083 M435.4638,139.5083 L448.4638,154.5083" fill="none" style="stroke:#181818;stroke-width:0.5;"/><text fill="#000000" font-family="sans-serif" font-size="14" lengthAdjust="spacing" textLength="62.2139" x="404.3569" y="169.5434">HealthKit</text><text fill="#000000" font-family="sans-serif" font-size="14" font-style="italic" lengthAdjust="spacing" textLength="62.7676" x="404.08" y="93.0552">&#171;System&#187;</text></g><g class="entity" data-entity="GMN12" data-source-line="20" data-uid="ent0013" id="entity_GMN12"><path d="M129.36,259.04 L129.36,314.9716 A0,0 0 0 0 129.36,314.9716 L342.0783,314.9716 A0,0 0 0 0 342.0783,314.9716 L342.0783,269.04 L332.0783,259.04 L167.19,259.04 L68.46,221.02 L159.19,259.04 L129.36,259.04 A0,0 0 0 0 129.36,259.04" fill="#FAFAFA" style="stroke:#181818;stroke-width:0.5;"/><path d="M332.0783,259.04 L332.0783,269.04 L342.0783,269.04 L332.0783,259.04" fill="#FAFAFA" style="stroke:#181818;stroke-width:0.5;"/><text fill="#000000" font-family="sans-serif" font-size="13" font-weight="bold" lengthAdjust="spacing" textLength="92.1045" x="135.36" y="276.6084">Primary Actor</text><text fill="#000000" font-family="sans-serif" font-size="13" lengthAdjust="spacing" textLength="4.1133" x="227.4645" y="276.6084">:</text><text fill="#000000" font-family="sans-serif" font-size="13" lengthAdjust="spacing" textLength="131.0283" x="135.36" y="291.9189">- Authenticated user</text><text fill="#000000" font-family="sans-serif" font-size="13" lengthAdjust="spacing" textLength="191.7183" x="135.36" y="307.2295">- Can log multiple moods/day</text></g><!--link User to UC1--><g class="link" data-entity-1="User" data-entity-2="UC1" data-source-line="13" data-uid="lnk8" id="link_User_UC1"><path d="M68.46,209 C99.47,209 142.2,209 178.9,209" fill="none" id="User-to-UC1" style="stroke:#181818;stroke-width:1;"/><polygon fill="#181818" points="184.9,209,175.9,205,179.9,209,175.9,213,184.9,209" style="stroke:#181818;stroke-width:1;"/></g><!--link User to UC2--><g class="link" data-entity-1="User" data-entity-2="UC2" data-source-line="14" data-uid="lnk9" id="link_User_UC2"><path d="M65.23,162.07 C81.17,138.11 103.3,110.24 129.36,92 C145.27,80.88 159.2518,74.8917 177.3418,69.7117" fill="none" id="User-to-UC2" style="stroke:#181818;stroke-width:1;"/><polygon fill="#181818" points="183.11,68.06,173.3566,66.6921,178.3032,69.4364,175.5589,74.383,183.11,68.06" style="stroke:#181818;stroke-width:1;"/></g><!--link UC1 to UC3--><g class="link" data-entity-1="UC1" data-entity-2="UC3" data-source-line="15" data-uid="lnk10" id="link_UC1_UC3"><path d="M235.72,194.17 C235.72,179.9 235.72,164.34 235.72,149.3" fill="none" id="UC1-to-UC3" style="stroke:#181818;stroke-width:1;stroke-dasharray:7,7;"/><polygon fill="#181818" points="235.72,143.3,231.72,152.3,235.72,148.3,239.72,152.3,235.72,143.3" style="stroke:#181818;stroke-width:1;"/><text fill="#000000" font-family="sans-serif" font-size="13" lengthAdjust="spacing" textLength="59.3569" x="194.72" y="173.6584">&#171;include&#187;</text></g><!--link UC3 to HealthKit--><g class="link" data-entity-1="UC3" data-entity-2="HealthKit" data-source-line="16" data-uid="lnk11" id="link_UC3_HealthKit"><path d="M308.11,126 C340.52,126 371.22,126 396.68,126" fill="none" id="UC3-to-HealthKit" style="stroke:#181818;stroke-width:1;"/><polygon fill="#181818" points="402.68,126,393.68,122,397.68,126,393.68,130,402.68,126" style="stroke:#181818;stroke-width:1;"/></g><!--SRC=[NL3HIiD047o_hrZof85Mh6-b148H11KBjRulkMrozEust6seGVntxv8YMjYdcTdTcR5q5126ODfEG9j0ZHZsAfwCxp6W0yUUcowm8v0mq1ycTgZvR7mBHxIHbC96EC0XKe3DPaSXig-g2_f4QALxDfAe_HY5NA9KVeU-jGJ5AxD-3zYSqhPvsqFTzmLyAO0XKeEHuEQmlRy5Z52yS0jPNlndLpFxOUWCjKSxYcdYbUPXrZn-zXocuBElh4epMLyigldN5R3Am6nYMLrkhLCQunixQAegcFa4vutVmEfRASz2buxvE5rDshBS1UCmZ53dYifodS05r8Dqv9Dt5DBPUvZWBNgmARWRh9W-DUPI0_5EuwZ8QyWVVW00]--></g></svg>